<svg
  className="autocomplete-toggle-icon w-100 h-100"
  xmlns="http://www.w3.org/2000/svg"
  width="40"
  height="40"
  viewBox="0 0 40 40"
>
  <path
    fill="#244262"
    d="M23,12 L23,5.33744044 L12,8.58103018 L1,5.33744044 L1,22.7138416 L4,23.598457 L4,21.9974009 C4,21.4451161 4.44771525,20.9974009 5,20.9974009 C5.10209215,20.9974009 5.2035823,21.0130345 5.30094172,21.0437583 L6.30094172,21.3593291 C6.71706673,21.490646 7,21.8766184 7,22.3129716 L7,24.4830724 L11,25.6625596 L11,26.7051282 L0.71716798,23.6730111 C0.291918627,23.547617 -8.54672707e-16,23.1571933 6.66133815e-16,22.7138416 L0,4 L0.0534892716,4.01577248 L10.6660732,0.261778576 C11.5291549,-0.043519683 12.4708451,-0.043519683 13.3339268,0.261778576 L23.9465107,4.01577248 L24,4 L24,12 L23,12 Z M3.82229459,8.02428284 L8.2740982,9.29310802 C8.70371008,9.4155533 9,9.80808921 9,10.2548097 L9,10.3550412 C9,10.7114822 8.71104752,11.0004346 8.35460658,11.0004346 C8.2947789,11.0004346 8.23524179,10.9921158 8.17770541,10.9757172 L3.7259018,9.70689198 C3.29628992,9.5844467 3,9.19191079 3,8.74519028 L3,8.64495879 C3,8.28851785 3.28895248,7.99956537 3.64539342,7.99956537 C3.7052211,7.99956537 3.76475821,8.00788418 3.82229459,8.02428284 Z M3.82229459,14.0242828 L8.2740982,15.293108 C8.70371008,15.4155533 9,15.8080892 9,16.2548097 L9,16.3550412 C9,16.7114822 8.71104752,17.0004346 8.35460658,17.0004346 C8.2947789,17.0004346 8.23524179,16.9921158 8.17770541,16.9757172 L3.7259018,15.706892 C3.29628992,15.5844467 3,15.1919108 3,14.7451903 L3,14.6449588 C3,14.2885178 3.28895248,13.9995654 3.64539342,13.9995654 C3.7052211,13.9995654 3.76475821,14.0078842 3.82229459,14.0242828 Z M3.82229459,11.0242828 L8.2740982,12.293108 C8.70371008,12.4155533 9,12.8080892 9,13.2548097 L9,13.3550412 C9,13.7114822 8.71104752,14.0004346 8.35460658,14.0004346 C8.2947789,14.0004346 8.23524179,13.9921158 8.17770541,13.9757172 L3.7259018,12.706892 C3.29628992,12.5844467 3,12.1919108 3,11.7451903 L3,11.6449588 C3,11.2885178 3.28895248,10.9995654 3.64539342,10.9995654 C3.7052211,10.9995654 3.76475821,11.0078842 3.82229459,11.0242828 Z M3.82229459,17.0242828 L8.2740982,18.293108 C8.70371008,18.4155533 9,18.8080892 9,19.2548097 L9,19.3550412 C9,19.7114822 8.71104752,20.0004346 8.35460658,20.0004346 C8.2947789,20.0004346 8.23524179,19.9921158 8.17770541,19.9757172 L3.7259018,18.706892 C3.29628992,18.5844467 3,18.1919108 3,17.7451903 L3,17.6449588 C3,17.2885178 3.28895248,16.9995654 3.64539342,16.9995654 C3.7052211,16.9995654 3.76475821,17.0078842 3.82229459,17.0242828 Z M22,22.5 C23.3807119,22.5 24.5,21.3807119 24.5,20 C24.5,18.6192881 23.3807119,17.5 22,17.5 C20.6192881,17.5 19.5,18.6192881 19.5,20 C19.5,21.3807119 20.6192881,22.5 22,22.5 Z M22,23.5 C20.0670034,23.5 18.5,21.9329966 18.5,20 C18.5,18.0670034 20.0670034,16.5 22,16.5 C23.9329966,16.5 25.5,18.0670034 25.5,20 C25.5,21.9329966 23.9329966,23.5 22,23.5 Z M20.7071068,22.4 L16.4,26.7071068 L15.2928932,25.6 L19.6,21.2928932 L20.7071068,22.4 Z"
    transform="translate(8 7)"
  />
</svg>
