<svg xmlns="http://www.w3.org/2000/svg" width="40" height="40" viewBox="0 0 40 40">
  <path fill="#244262" d="M18,30.5 L18,18 C18,17.4477153 18.4477153,17 19,17 L26,17 L26,12.5 C26,11.9477153 25.5522847,11.5 25,11.5 L23,11.5 L23,12.5 L13,12.5 L13,11.5 L11,11.5 C10.4477153,11.5 10,11.9477153 10,12.5 L10,29.5 C10,30.0522847 10.4477153,30.5 11,30.5 L18,30.5 Z M18,31.5 L11,31.5 C9.8954305,31.5 9,30.6045695 9,29.5 L9,12.5 C9,11.3954305 9.8954305,10.5 11,10.5 L13,10.5 L13,8.5 L16.0630087,8.5 C16.2850301,7.63738639 17.0680803,7 18,7 C18.9319197,7 19.7149699,7.63738639 19.9369913,8.5 L23,8.5 L23,10.5 L25,10.5 C26.1045695,10.5 27,11.3954305 27,12.5 L27,17 L32,17 C32.5522847,17 33,17.4477153 33,18 L33,33 C33,33.5522847 32.5522847,34 32,34 L19,34 C18.4477153,34 18,33.5522847 18,33 L18,31.5 Z M19,18 L19,33 L32,33 L32,18 L19,18 Z M22,22.5 L22,21.5 L29,21.5 L29,22.5 L22,22.5 Z M22,25.5 L22,24.5 L29,24.5 L29,25.5 L22,25.5 Z M22,28.5 L22,27.5 L29,27.5 L29,28.5 L22,28.5 Z"/>
</svg>
