<svg
  className="w-100 h-100"
  xmlns="http://www.w3.org/2000/svg"
  width="40"
  height="40"
  viewBox="0 0 40 40"
>
  <g fill="none" fillRule="evenodd">
    <g fill="#244262" fillRule="nonzero" transform="translate(11)">
      <path
        d="M14,14 L15,14 L14,15 L14,14 Z M14,14 L14,4 L15,3 L15,15 L3,15 L4,14 L14,14 Z M15,14 L14,15 L14,14 L15,14 Z M14,4 L15,3 L15,15 L3,15 L4,14 L14,14 L14,4 Z"
        transform="rotate(-135 9 9)"
      />
      <rect width="2" height="14" x="8" y="2" />
    </g>
    <g fill="#244262" fillRule="nonzero" transform="rotate(-180 14.5 20)">
      <path
        d="M14,14 L15,14 L14,15 L14,14 Z M14,14 L14,4 L15,3 L15,15 L3,15 L4,14 L14,14 Z M15,14 L14,15 L14,14 L15,14 Z M14,4 L15,3 L15,15 L3,15 L4,14 L14,14 L14,4 Z"
        transform="rotate(-135 9 9)"
      />
      <rect width="2" height="14" x="8" y="2" />
    </g>
  </g>
</svg>
