<svg xmlns="http://www.w3.org/2000/svg" width="256" height="256" viewBox="0 0 256 256">
  <path fill="#FFF" fill-rule="evenodd" d="M236,0 L20,0 C8.954305,2.02906125e-15 -1.00828691e-13,8.954305 -9.9475983e-14,20 L-1.17239551e-13,236 C-1.15886844e-13,247.045695 8.954305,256 20,256 L128,256 L128,159.288889 L96.7111111,159.288889 L96.7111111,116.622222 L128,116.622222 L128,99.9992889 C128,71.3301333 149.526756,45.5111111 176,45.5111111 L210.488889,45.5111111 L210.488889,88.1777778 L176,88.1777778 C172.225422,88.1777778 167.822222,92.7601778 167.822222,99.6238222 L167.822222,116.622222 L210.488889,116.622222 L210.488889,159.288889 L167.822222,159.288889 L167.822222,256 L236,256 C247.045695,256 256,247.045695 256,236 L256,20 C256,8.954305 247.045695,-2.02906125e-15 236,0 Z"/>
</svg>
