<svg
  xmlns="http://www.w3.org/2000/svg"
  width="40"
  height="40"
  viewBox="0 0 40 40"
>
  <path
    fill="#244262"
    fillRule="evenodd"
    d="M19,33.9628889 C11.6960957,33.4364445 5.99560608,27.3750487 6.00000254,19.9907727 C6.00459345,12.2580775 12.2493829,6.01380837 19.9931055,6.00002665 C27.38589,5.98573069 33.4517407,11.724881 33.964846,19 L32.8503229,19 C32.8126967,18.6207143 32.7575908,18.2377251 32.6846845,17.8511601 C31.749286,12.8908883 28.8443858,9.46038765 24.0181885,7.76753265 C23.1401763,7.45974083 22.9025966,7.68024841 23.0380285,8.60362386 C23.0644263,8.78048931 22.9289943,9.10895371 22.7889715,9.16178365 C21.9924481,9.46613004 21.9855617,9.44430898 22.182971,10.2597276 C22.2231415,10.4274052 22.2633119,10.5962313 22.2874142,10.7673544 C22.419403,11.6953238 22.4412098,11.7596385 23.3800515,11.9686613 C23.9344043,12.0915483 24.0296657,12.4648033 24.0090066,12.8989276 C23.9975293,13.1159897 23.8265178,13.3250125 23.7266655,13.5386292 C23.4385857,13.3479821 23.1436195,13.1676712 22.8658693,12.9632423 C22.7797897,12.9000761 22.761426,12.7427347 22.6753464,12.6841624 C22.5559827,12.6026205 22.4021871,12.5739086 22.2036301,12.5015546 C22.3103688,12.9816179 22.3953007,13.3479821 22.4710508,13.7154947 C22.5513917,14.1105708 22.7970056,14.200152 23.1528013,14.1025314 C23.3961197,14.0359198 23.6405859,13.9727535 23.8839042,13.9084388 C23.3708697,14.6273854 24.3188933,14.8789018 24.2752796,15.4037558 C24.1869045,15.4565857 24.1123022,15.5186035 24.0273703,15.5496124 C23.7622451,15.6472329 23.5074494,15.7517443 23.5900858,16.1089206 C23.6910859,16.5430449 23.7874951,17.0426324 24.332666,17.063305 C24.5782798,17.0724928 24.8939051,16.8565791 25.0637689,16.6498533 C25.1969054,16.487918 25.1705076,16.1824232 25.1888713,15.938946 C25.2497009,15.1510909 25.3024964,15.0982609 26.0783607,15.0810338 C26.2528154,15.0775883 26.4261223,15.0419856 26.6373043,15.0167191 C26.4375996,14.7479755 26.2918381,14.5504374 26.1449289,14.3540479 L26.2447813,14.2162306 C26.4628496,14.3035149 26.7532249,14.3310783 26.8829182,14.4895682 C27.0768843,14.7284514 27.158373,15.0580642 27.2926572,15.3601137 C27.8538963,15.2050693 27.8538963,15.2050693 27.3500436,14.0129502 C27.6300893,14.1484705 27.8493054,14.323039 28.0857374,14.349454 C28.3543058,14.3804628 28.6377947,14.2782484 28.7755221,14.2564273 C29.0475337,14.6917001 29.2070679,15.0236099 29.4366136,15.2992444 C29.717807,15.6368966 30.0678641,15.9159765 30.3662734,16.2409955 C30.5177736,16.4075246 30.6440237,16.6073596 30.7369897,16.8117885 C30.7783079,16.9036667 30.7105919,17.0449293 30.6922283,17.1632225 C30.5889327,17.1436983 30.4362849,17.162074 30.389228,17.1000562 C30.1068869,16.7302467 29.8578298,16.3374675 29.5800796,15.965361 C29.4721931,15.8195044 29.2449429,15.5760273 29.2036247,15.6001453 C28.8489767,15.8080197 28.4231695,16.0021123 28.2154307,16.3259828 C27.8263508,16.9300816 27.4648164,17.0185144 26.9552251,16.4695424 C26.5868043,16.0733178 26.2746222,16.0434574 25.9429287,16.4247518 C25.2606832,17.2065251 24.5887535,17.9377175 24.2498816,19 L23,19 C20.790861,19 19,20.790861 19,23 L19,27.6083018 C18.9897685,27.60615 18.9795457,27.6039596 18.9693319,27.6017293 C18.3220131,27.4604667 17.5484443,27.3892611 17.325785,26.6335633 C17.1226371,25.9479225 16.6761708,25.7182271 16.0770566,25.5298769 C15.7109313,25.4150292 15.3792379,25.176146 15.0498399,24.9648263 C14.7583169,24.7776245 14.5195894,24.4273391 14.2119982,24.3630244 C13.1319859,24.1344774 12.03361,23.9771361 10.9375295,23.8404674 C10.5943588,23.7979737 10.5220519,23.6486717 10.4279382,23.358107 C10.238563,22.7712353 9.96310821,22.2130755 9.73815348,21.6365401 C9.68076706,21.4883866 9.60960791,21.2736214 9.67273297,21.1656646 C10.0136083,20.5845352 9.65436931,20.4134122 9.19986892,20.2790404 C9.03459605,20.2296559 8.86932318,20.1825683 8.70060713,20.1435201 C8.23577719,20.0367117 8.22659536,19.7518895 8.43089099,19.4119403 C8.72470942,18.9215406 9.17232344,18.6608364 9.73471029,18.5620674 C10.1616652,18.4885648 10.4761427,18.5666613 10.6804384,18.9915977 C10.8284953,19.2970926 11.0385296,19.5738755 11.2198707,19.8632917 C11.2761093,19.851807 11.3312003,19.8414707 11.387439,19.8299859 C11.2038025,18.92958 11.5710755,18.3966867 12.3905535,18.1313885 C12.536315,18.084301 12.6751901,17.9235142 12.7555311,17.7799546 C13.3443157,16.7176134 14.2338051,16.2352531 15.4481016,16.2628165 C16.0919771,16.2777467 16.5086025,15.8459194 16.7783186,15.3107292 C17.0457393,14.7812813 16.7415913,14.3414146 16.4340001,13.9428931 C16.0954203,13.5030265 15.7132268,13.0964656 15.3643174,12.6634898 C15.0257376,12.2442957 14.854726,12.230514 14.525328,12.6611929 C14.4105552,12.8104949 14.3416915,12.9953997 14.251021,13.1630773 C13.9755662,13.6718526 13.7001114,14.1806279 13.4246566,14.6894031 C13.3764521,14.6744729 13.3282475,14.6583943 13.2800429,14.6434641 C13.2800429,14.4390352 13.232986,14.2208245 13.2892247,14.0347713 C13.4269521,13.5822714 13.5130317,13.1814529 13.2192133,12.7255076 C13.1101791,12.5566815 13.2249519,12.1478237 13.3707134,11.9422463 C13.4763044,11.7906474 13.8516116,11.6723542 14.0157367,11.7447083 C14.6561691,12.0272336 14.9419534,11.7274811 15.1542831,11.1911424 C15.1898627,11.1004127 15.2874196,11.0338011 15.4664652,10.8305206 C15.4664652,11.2370815 15.4836811,11.4931918 15.463022,11.7458568 C15.4194083,12.281047 15.7430677,12.4119734 16.1757613,12.403934 C16.637148,12.3947462 16.7771709,12.0915483 16.7014208,11.6976207 C16.6061594,11.1911424 16.5051593,10.6766247 16.320375,10.1988583 C16.2010113,9.89221498 15.9611361,9.60854118 15.7143745,9.38114275 C15.4779425,9.1640806 15.2610219,9.29845241 15.2552832,9.60509575 C15.2461014,10.116168 14.9017829,10.2493913 14.5092598,10.3217454 C14.3405438,10.3527542 14.1569073,10.3022212 13.9801571,10.2884395 C14.0226231,10.116168 14.0341003,9.92781777 14.1121459,9.77392186 C14.2418392,9.5178115 14.4679416,9.28352221 14.17068,9.00788774 C13.879157,8.73799566 13.5830431,8.79312255 13.2869292,9.01248165 C12.747497,9.4133001 12.1851101,9.78425815 11.6674847,10.2114916 C8.98065283,12.4292005 7.56091297,15.3268078 7.2085604,18.75616 C7.12133305,19.6037359 7.30726503,20.4582028 7.96950423,21.0875681 C8.41597052,21.5125046 8.93130051,21.865087 9.39039181,22.2785387 C9.51893738,22.3933864 9.62797156,22.6070031 9.62682383,22.7735323 C9.61993747,23.5567935 10.1054265,23.9024851 10.753893,24.1080625 C11.3346435,24.2918188 11.4080981,24.4996931 11.1292001,25.0624468 C10.9180181,25.4896802 10.7137225,25.9318439 10.5955065,26.3912346 C10.2144607,27.8762153 10.4417109,28.3838421 11.6651892,29.2750602 C12.1231328,29.6081185 12.4984399,30.057173 12.9093267,30.454546 C13.1928155,30.7278835 13.4258044,31.1034355 13.7620887,31.2607768 C14.6791236,31.6926042 15.636329,32.0371472 16.5820571,32.4046599 C16.7002731,32.4505989 16.8758755,32.4839048 16.9722847,32.4299263 C17.6018192,32.0828594 18.3506014,31.9817195 19,31.6684682 L19,33.9628889 Z M17.139853,9.58557164 C17.3039781,9.8118216 17.5461488,10.0139535 17.617308,10.26547 C17.8170127,10.9740803 17.921456,11.710254 18.1200129,12.4200127 C18.195763,12.6944987 18.3862859,13.0941687 18.5917293,13.1412562 C18.9647409,13.227392 19.226423,12.9173032 19.3802186,12.5371574 C19.5868097,12.0295306 19.8645599,11.5517642 20.0734464,11.0441373 C20.1423101,10.8764597 20.1652647,10.614607 20.0814805,10.4710474 C19.4789232,9.4580907 18.2818426,9.11010219 17.139853,9.58557164 Z M28.1410447,29.9660621 L24.4,33.7071068 L23.2928932,32.6 L27.0339379,28.8589553 C26.6956399,28.320319 26.5,27.6830066 26.5,27 C26.5,25.0670034 28.0670034,23.5 30,23.5 C31.9329966,23.5 33.5,25.0670034 33.5,27 C33.5,28.9329966 31.9329966,30.5 30,30.5 C29.3169934,30.5 28.679681,30.3043601 28.1410447,29.9660621 Z M30,29.5 C31.3807119,29.5 32.5,28.3807119 32.5,27 C32.5,25.6192881 31.3807119,24.5 30,24.5 C28.6192881,24.5 27.5,25.6192881 27.5,27 C27.5,28.3807119 28.6192881,29.5 30,29.5 Z"
  />
</svg>
