<svg xmlns="http://www.w3.org/2000/svg" width="256" height="256" viewBox="0 0 256 256">
  <path fill="#FFF" d="M237.096689,0 L18.9152153,0 C8.46780265,0 0,8.2093937 0,18.3418318 L0,237.650431 C0,247.783464 8.47077861,256 18.9152153,256 L237.096689,256 C247.54172,256 256,247.778107 256,237.650431 L256,18.3418318 C256,8.21236963 247.54172,0 237.096689,0 Z M77.611902,214.2894 L38.9321318,214.2894 L38.9321318,98.7085404 L77.611902,98.7085404 L77.611902,214.2894 Z M58.2758856,82.9182689 L58.0157865,82.9182689 C45.044758,82.9182689 36.6364746,74.0476241 36.6364746,62.9420578 C36.6364746,51.6127016 45.2917629,42.9825118 58.5199145,42.9825118 C71.7492566,42.9825118 79.8867274,51.6103209 80.1438506,62.9420578 C80.1438506,74.0500049 71.7522326,82.9182689 58.2758856,82.9182689 Z M217.041085,214.2894 L178.373813,214.2894 L178.373813,152.449625 C178.373813,136.911117 172.771267,126.308483 158.787816,126.308483 C148.090423,126.308483 141.740315,133.461422 138.951838,140.36736 C137.918584,142.833808 137.662651,146.283504 137.662651,149.728437 L137.662651,214.287019 L99.0025226,214.287019 C99.0025226,214.287019 99.5084362,109.546869 99.0025226,98.7067549 L137.668603,98.7067549 L137.668603,115.092807 C142.801543,107.219098 151.974053,95.9873523 172.507597,95.9873523 C197.958025,95.9873523 217.041085,112.497203 217.041085,148.014898 L217.041085,214.2894 Z M137.418623,115.460037 C137.484689,115.351713 137.576944,115.221367 137.668603,115.094593 L137.668603,115.460037 L137.418623,115.460037 Z"/>
</svg>
