<svg xmlns="http://www.w3.org/2000/svg" width="256" height="256" viewBox="0 0 256 256">
  <path fill="#FFF" d="M237.096689,0 C247.54172,0 256,8.21236963 256,18.3418318 L256,237.650431 C256,247.778107 247.54172,256 237.096689,256 L18.9152153,256 C8.47077861,256 -2.84217094e-14,247.783464 -2.84217094e-14,237.650431 L-2.84217094e-14,18.3418318 C-2.84217094e-14,8.2093937 8.46780265,0 18.9152153,0 L237.096689,0 Z M222.240401,176.991962 L222.240401,80.4129462 C222.240401,79.071571 222.240401,79.071571 222.240401,77.7301957 L158.847612,124.678328 L222.240401,179.674712 C222.240401,178.333337 222.240401,178.333337 222.240401,176.991962 Z M211.450139,187.722963 C211.450139,187.722963 212.798922,187.722963 212.798922,187.722963 L148.05735,132.72658 C130.523174,146.140332 127.825609,146.140332 108.94265,132.72658 L44.2010782,187.722963 C44.2010782,187.722963 45.549861,187.722963 45.549861,187.722963 L211.450139,187.722963 Z M34.759599,176.991962 C34.759599,178.333337 34.759599,178.333337 34.759599,179.674712 L98.1523882,124.678328 L34.759599,77.7301957 C34.759599,79.071571 34.759599,79.071571 34.759599,80.4129462 L34.759599,176.991962 Z M212.798922,69.6819445 C157.498829,68.3405692 100.849954,68.3405692 45.549861,69.6819445 L125.128043,128.702454 C127.825609,130.043829 130.523174,130.043829 133.22074,128.702454 L212.798922,69.6819445 Z"/>
</svg>
