<?xml version="1.0" encoding="utf-8"?>
<!-- Generator: Adobe Illustrator 23.0.1, SVG Export Plug-In . SVG Version: 6.00 Build 0)  -->
<svg version="1.1" id="Layer_1" xmlns="http://www.w3.org/2000/svg" xmlns:xlink="http://www.w3.org/1999/xlink" x="0px" y="0px"
	 viewBox="0 0 18 18" style="enable-background:new 0 0 18 18;" xml:space="preserve">
<style type="text/css">
	.st0{opacity:0.2;fill:#FFFFFF;}
	.st1{fill:#FFFFFF;}
</style>
<g>
	<g>
		<circle class="st0" cx="5" cy="5" r="4.5"/>
		<path class="st1" d="M5,1c2.2,0,4,1.8,4,4S7.2,9,5,9S1,7.2,1,5S2.8,1,5,1 M5,0C2.2,0,0,2.2,0,5s2.2,5,5,5s5-2.2,5-5S7.8,0,5,0L5,0
			z"/>
	</g>
	<circle class="st1" cx="5" cy="5" r="2"/>
	<g transform="translate(8)">
		<g>
			<circle class="st0" cx="5" cy="5" r="4.5"/>
			<path class="st1" d="M5,1c2.2,0,4,1.8,4,4S7.2,9,5,9S1,7.2,1,5S2.8,1,5,1 M5,0C2.2,0,0,2.2,0,5s2.2,5,5,5s5-2.2,5-5S7.8,0,5,0
				L5,0z"/>
		</g>
		<circle class="st1" cx="5" cy="5" r="2"/>
	</g>
	<g transform="translate(4 8)">
		<g>
			<circle class="st0" cx="5" cy="5" r="4.5"/>
			<path class="st1" d="M5,1c2.2,0,4,1.8,4,4S7.2,9,5,9S1,7.2,1,5S2.8,1,5,1 M5,0C2.2,0,0,2.2,0,5s2.2,5,5,5s5-2.2,5-5S7.8,0,5,0
				L5,0z"/>
		</g>
		<circle class="st1" cx="5" cy="5" r="2"/>
	</g>
</g>
</svg>
