<svg
  className="selection-polygon-icon w-100 h-100"
  xmlns="http://www.w3.org/2000/svg"
  width="36"
  height="36"
  viewBox="0 0 36 36"
>
  <g fill="none" transform="translate(9 9)">
    <path stroke="#0169B1" d="M2.03549733,16.9518732 L15.204041,16.9518732" />
    <path
      fill="#244262"
      d="M2.03423402,16.3799576 L2.26556362,16.6111398 C3.08087018,15.9632113 4.21170646,15.4222765 5.58788909,14.9653118 C6.56128786,14.6420924 7.59961679,14.3807109 8.63731404,14.1750534 C9.00010554,14.1031531 9.33721914,14.0432845 9.64029995,13.9948101 C9.70940713,13.9837571 9.77126988,13.9741506 9.8254382,13.9659577 C12.4904368,11.2155214 13.2822584,7.76111723 11.7603954,6.24013232 C10.2388535,4.71859049 6.7852731,5.50956559 4.03477947,8.17285892 C4.02651175,8.22755191 4.01679209,8.29015391 4.00558622,8.36019657 C3.9570905,8.66332067 3.89719271,9.00048202 3.82525387,9.36332469 C3.6194863,10.4011682 3.35794209,11.4396436 3.03449575,12.413181 C2.5774693,13.7887796 2.03645719,14.9192904 1.38846975,15.7346049 L1.61991036,15.965898 L7.02671173,10.5590966 C6.76183152,10.1103854 6.82214134,9.52286215 7.20764121,9.13736228 C7.66463597,8.68036752 8.40553741,8.68036752 8.86358759,9.13736228 C9.32058235,9.59435705 9.32058235,10.3352585 8.86358759,10.7922533 C8.4772348,11.1777158 7.88964858,11.2380513 7.44093205,10.9732596 L2.03423402,16.3799576 Z M2.89990445,7.84336395 C2.91152395,7.71121161 2.96790632,7.58225431 3.06905155,7.48110908 C6.23954555,4.31061507 10.4773533,3.30181634 12.5879129,5.41237596 C14.6944069,7.51765448 13.694004,11.7419755 10.5387774,14.9099688 C10.4488481,15.0093232 10.3245131,15.0784693 10.1812324,15.0972754 C10.1188024,15.1054695 9.99726669,15.1230484 9.82515207,15.1505763 C9.53586354,15.1968448 9.21290846,15.2541989 8.86485677,15.3231781 C7.87157345,15.5200333 6.87892182,15.7699163 5.95673873,16.0761294 C4.47145347,16.5693219 3.32274052,17.1602096 2.65499257,17.8279575 C2.42649845,18.0564516 2.0560545,18.0565107 1.82748755,17.8280894 L0.171541163,16.1731984 C-0.0571288499,15.9446742 -0.0571879266,15.5740267 0.171409227,15.3454296 C0.83939902,14.6774398 1.43043284,13.5289445 1.92373988,12.0441454 C2.23015898,11.1218581 2.4801909,10.1290929 2.67714634,9.13569567 C2.74616056,8.7876041 2.8035411,8.46461223 2.84982852,8.17529113 C2.87416233,8.02319183 2.8907243,7.91058826 2.89990445,7.84336395 Z M9.38300658,3.38424506 C9.17692395,3.17816243 9.17692395,2.84403647 9.38300658,2.63795384 L11.8663985,0.154561972 C12.0724811,-0.0515206572 12.406607,-0.0515206572 12.6126897,0.154561972 L17.845438,5.38731033 C18.0515207,5.59339296 18.0515207,5.92751892 17.845438,6.13360155 L15.3620462,8.61699342 C15.1559635,8.82307605 14.8218376,8.82307605 14.6157549,8.61699342 L9.38300658,3.38424506 Z"
    />
  </g>
</svg>
