<svg xmlns="http://www.w3.org/2000/svg" width="44" height="44" viewBox="0 0 44 44">
  <path fill="#FFF" d="M29.4888889,25.5262222 C28.1235556,25.5262222 26.9004444,26.1804444 26.1324444,27.176 L19.2204444,23.1653333 C19.6471111,22.1128889 19.6471111,20.9466667 19.2204444,19.8942222 L26.1324444,15.8835556 C26.9004444,16.8791111 28.1235556,17.5333333 29.4888889,17.5333333 C31.8497778,17.5333333 33.7555556,15.6275556 33.7555556,13.2666667 C33.7555556,10.9057778 31.8497778,9 29.4888889,9 C27.128,9 25.2222222,10.9057778 25.2222222,13.2666667 C25.2222222,13.8355556 25.336,14.4044444 25.5351111,14.888 L18.6231111,18.9271111 C17.8266667,17.9315556 16.632,17.2773333 15.2666667,17.2773333 C12.9057778,17.2773333 11,19.1831111 11,21.544 C11,23.9048889 12.9057778,25.8106667 15.2666667,25.8106667 C16.632,25.8106667 17.8551111,25.1564444 18.6231111,24.1608889 L25.5351111,28.1715556 C25.336,28.6551111 25.2222222,29.224 25.2222222,29.7928889 C25.2222222,32.1537778 27.128,34.0595556 29.4888889,34.0595556 C31.8497778,34.0595556 33.7555556,32.1537778 33.7555556,29.7928889 C33.7555556,27.432 31.8497778,25.5262222 29.4888889,25.5262222 Z"/>
</svg>
