<svg xmlns="http://www.w3.org/2000/svg" width="256" height="256" viewBox="0 0 256 256">
  <path fill="#FFF" fill-rule="evenodd" d="M237.096689,0 C247.54172,0 256,8.21236963 256,18.3418318 L256,237.650431 C256,247.778107 247.54172,256 237.096689,256 L18.9152153,256 C8.47077861,256 0,247.783464 0,237.650431 L0,18.3418318 C0,8.2093937 8.46780265,0 18.9152153,0 L237.096689,0 Z M199.925878,120.906699 C210.372343,120.045752 217.458313,115.301691 220.185282,108.864681 C216.416996,111.177097 204.719481,113.698163 198.259253,111.297189 C197.942706,109.780921 197.58897,108.340683 197.24172,107.040408 C192.31925,88.9842927 175.465315,74.437625 157.805744,76.1949405 C159.234527,75.6186724 160.683635,75.0821468 162.128419,74.6004834 C164.072238,73.9049873 175.476991,72.0513391 173.681066,68.0299894 C172.167524,64.492895 158.233427,70.7031134 155.609811,71.5148135 C159.073227,70.2136743 164.800901,67.9755593 165.414534,64 C160.108489,64.727031 154.899744,67.2329768 150.87502,70.8767715 C152.32802,69.3142812 153.430311,67.4100907 153.664261,65.3607532 C139.512214,74.3922666 131.24525,92.6004403 124.554963,110.263017 C119.301676,105.177256 114.645589,101.172321 110.468647,98.9484619 C98.7508073,92.6712858 84.7401684,86.1219591 62.7466782,77.9660796 C62.0716386,85.2350936 66.3454479,94.9003292 78.6604877,101.327836 C75.99233,100.971016 71.1131041,101.767165 67.2107613,102.700685 C68.79998,111.028062 73.9901306,117.88885 88.0409865,121.206496 C81.6196779,121.629842 78.3011297,123.08952 75.2935062,126.235667 C78.2181011,132.027292 85.3546663,138.843586 98.1925267,137.444386 C83.9193964,143.589806 92.3727428,154.970455 103.986797,153.273185 C84.1741038,173.716018 52.9371985,172.213574 35,155.11517 C81.8328711,218.864081 183.63671,192.816241 198.80802,131.413873 C210.174718,131.510638 216.856788,127.480649 221,123.037681 C214.451121,124.147883 204.959053,123.000531 199.925878,120.906699 Z"/>
</svg>
