<svg xmlns="http://www.w3.org/2000/svg" width="256" height="256" viewBox="0 0 256 256">
	<polygon fill="currentColor" fill-rule="evenodd" points="61.2,151.3 70.9,119.2 80.6,151.3 89.1,151.3 98.3,104.8 90.6,104.8 84,137.1 74.6,105.5 67.5,105.5 57.9,137.1 51.4,104.8 43.3,104.8 52.7,151.3"/>
	<polygon fill="currentColor" fill-rule="evenodd" points="141.2,137.1 131.8,105.5 124.7,105.5 115.1,137.1 108.6,104.8 100.5,104.8 109.9,151.3 118.4,151.3 128.1,119.2 137.8,151.3 146.3,151.3 155.5,104.8 147.8,104.8"/>
	<polygon fill="currentColor" fill-rule="evenodd" points="198.3,137.1 188.9,105.5 181.8,105.5 172.2,137.1 165.7,104.8 157.6,104.8 167,151.3 175.5,151.3 185.2,119.2 194.9,151.3 203.4,151.3 212.6,104.8 204.9,104.8"/>
	<path fill="currentColor" fill-rule="evenodd" d="M71.9,62.1c3.5-2.9,7.3-5.4,10.9-8.1c2-1.5,4-1.8,5.9,0c2,1.9,0.5,3.4-0.4,5.2c-0.5,1-0.6,2.3-0.9,3.5c1.2,0.1,2.4,0.4,3.6,0.2c2.6-0.5,5-1.4,5-4.8c0-2.1,1.5-3,3.1-1.5c1.7,1.5,3.3,3.4,4.1,5.5c1.2,3.2,1.9,6.7,2.6,10.1c0.5,2.7-0.4,4.7-3.5,4.8c-2.9,0.1-5.1-0.8-4.8-4.4c0.1-1.7,0-3.4,0-6.2c-1.2,1.4-1.9,1.8-2.1,2.4c-1.4,3.6-3.4,5.6-7.7,3.7c-1.1-0.5-3.6,0.3-4.3,1.3c-1,1.4-1.8,4.1-1,5.3c1.7,2.6,1.5,4.9,0.9,7.4H87c0.8-1.5,1.6-2.9,2.4-4.4c0.6-1.1,1.1-2.4,1.8-3.4c2.2-2.9,3.4-2.8,5.6,0c2.1,2.6,4.4,5.1,6.5,7.8h41.5c-0.1-0.2-0.1-0.4-0.2-0.7c-0.5-2.5-1.1-4.9-1.8-8.2c1.3,0.5,2.4,0.7,3.2,1.2c0.6,0.4,0.7,1.5,1.3,1.9c1.9,1.4,3.9,2.6,5.8,3.9c0.7-1.4,1.8-2.8,1.9-4.3c0.1-2.9-0.5-5.4-4.2-6.3c-6.3-1.4-6.5-1.8-7.4-8.1c-0.2-1.2-0.4-2.3-0.7-3.4c-1.3-5.5-1.3-5.3,4.1-7.4c0.9-0.4,1.9-2.6,1.7-3.8c-0.9-6.2,0.7-7.7,6.6-5.6c22.8,8,39.2,21.7,49.1,40.7h8.4c-15.4-31.2-47.5-52.7-84.6-52.6c-37.2,0.1-69.2,21.5-84.6,52.6h8.4C56.7,77.4,63.3,69.2,71.9,62.1z M128.5,63.9c0.6,1,0.4,2.7-0.1,3.9c-1.4,3.4-3.3,6.6-4.7,10.1c-1,2.6-2.8,4.6-5.3,4.1c-1.4-0.3-2.7-3-3.2-4.9c-1.3-4.8-2-9.7-3.4-14.5c-0.5-1.7-2.1-3.1-3.2-4.6C116.4,54.7,124.5,57,128.5,63.9z"/><path fill="#FFF" d="M204,169.6c-3,5.2-6.5,10.1-10.6,14.9c-1,1.2-3.6,2.2-4.8,1.7c-1.2-0.5-2.1-3-2.1-4.7c0-4,0.1-8,0.2-12h-78.2c0.6,0.8,1,1.8,1.4,3c1.5,5.1,6.7,5.6,11.1,6.5c3.6,0.8,7.5,0.8,11.1,1.6c6.9,1.5,8.6,5.5,4.5,11.2c-2.5,3.5-6.6,5.9-9.1,9.4c-5,7-13.4,6.7-19.9,10.3c-0.6,0.4-1.8,0.1-2.6-0.2c-6.4-2.5-12.8-4.8-19-7.7c-2.3-1.1-3.8-3.6-5.7-5.4c-2.8-2.7-5.3-5.7-8.4-7.9c-8.2-6-9.8-9.4-7.2-19.4c0.1-0.5,0.3-0.9,0.4-1.4H43.4c15.3,31.1,47.2,52.5,84.4,52.6c37,0.1,69.3-21.4,84.7-52.6L204,169.6L204,169.6z"/>
</svg>